<!-- Generated by IcoMoon.io -->
<svg version="1.1" xmlns="http://www.w3.org/2000/svg" width="32" height="32" viewBox="0 0 32 32">
<path d="M16 1.333c8.1 0 14.667 6.566 14.667 14.667s-6.566 14.667-14.667 14.667c-8.1 0-14.667-6.566-14.667-14.667s6.566-14.667 14.667-14.667zM16 4c-6.627 0-12 5.373-12 12s5.373 12 12 12c6.627 0 12-5.373 12-12s-5.373-12-12-12zM16 9.333c0.68 0 1.241 0.509 1.323 1.166l0.010 0.167v3.999l4 0.001c0.736 0 1.333 0.597 1.333 1.333 0 0.68-0.509 1.241-1.166 1.323l-0.167 0.010h-4v4c0 0.736-0.597 1.333-1.333 1.333-0.68 0-1.241-0.509-1.323-1.166l-0.010-0.167-0.001-4h-3.999c-0.736 0-1.333-0.597-1.333-1.333 0-0.68 0.509-1.241 1.166-1.323l0.167-0.010 3.999-0.001 0.001-3.999c0-0.736 0.597-1.333 1.333-1.333z"></path>
</svg>
