<!-- Generated by IcoMoon.io -->
<svg version="1.1" xmlns="http://www.w3.org/2000/svg" width="32" height="32" viewBox="0 0 32 32">
<path d="M28.593 2.667c1.636 0 2.963 1.327 2.963 2.963v0 20.741c0 1.636-1.327 2.963-2.963 2.963v0h-25.185c-1.636 0-2.963-1.327-2.963-2.963v0-20.741c0-1.636 1.327-2.963 2.963-2.963v0zM17.694 15.804l-3.532 4.123c-0.52 0.606-1.427 0.692-2.050 0.193v0l-2.668-2.136-6.037 6.032 0.001 2.354h25.185l-0.001-2.232-10.898-8.334zM28.593 5.63h-25.185l-0.001 14.201 4.88-4.879c0.485-0.485 1.232-0.568 1.806-0.225l0.167 0.116 2.584 2.067 3.514-4.097c0.512-0.597 1.4-0.69 2.025-0.213v0l10.211 7.808 0.001-14.779zM8.963 7.852c1.432 0 2.593 1.161 2.593 2.593s-1.161 2.593-2.593 2.593c-1.432 0-2.593-1.161-2.593-2.593s1.161-2.593 2.593-2.593zM8.963 10.074c-0.205 0-0.37 0.166-0.37 0.37s0.166 0.37 0.37 0.37c0.205 0 0.37-0.166 0.37-0.37s-0.166-0.37-0.37-0.37z"></path>
</svg>
