<!-- Generated by IcoMoon.io -->
<svg version="1.1" xmlns="http://www.w3.org/2000/svg" width="32" height="32" viewBox="0 0 32 32">
<path d="M16 3.037c5.304 0 9.644 4.13 9.979 9.349 3.389 1.162 5.749 4.372 5.749 8.058 0 4.705-3.814 8.519-8.519 8.519-0.795 0-1.576-0.109-2.327-0.322-0.59-0.167-0.933-0.782-0.766-1.372s0.782-0.933 1.372-0.766c0.555 0.157 1.132 0.238 1.721 0.238 3.477 0 6.296-2.819 6.296-6.296 0-2.932-2.021-5.457-4.833-6.126-0.466-0.111-0.793-0.5-0.846-0.949-0.030-0.105-0.048-0.217-0.048-0.333 0-4.296-3.482-7.778-7.778-7.778s-7.778 3.482-7.778 7.778c0 0.398-0.209 0.747-0.523 0.943-0.145 0.162-0.341 0.284-0.57 0.339-2.813 0.669-4.833 3.194-4.833 6.126 0 3.477 2.819 6.296 6.296 6.296 0.589 0 1.167-0.081 1.721-0.238 0.59-0.167 1.205 0.176 1.372 0.766s-0.176 1.205-0.766 1.372c-0.751 0.213-1.532 0.322-2.327 0.322-4.705 0-8.519-3.814-8.519-8.519 0-3.759 2.454-7.022 5.952-8.125 0.367-5.187 4.692-9.283 9.974-9.283zM16.628 12.805l0.154 0.128 5.283 5.242c0.436 0.432 0.438 1.136 0.006 1.571-0.384 0.387-0.983 0.432-1.417 0.134l-0.154-0.128-3.39-3.364 0.001 9.982c0 0.614-0.497 1.111-1.111 1.111-0.558 0-1.020-0.411-1.099-0.947l-0.012-0.164-0.001-9.963-3.238 3.252c-0.385 0.386-0.984 0.43-1.417 0.131l-0.154-0.128c-0.386-0.385-0.43-0.984-0.131-1.417l0.128-0.154 5.137-5.154c0.384-0.386 0.982-0.43 1.415-0.132z"></path>
</svg>
