<!-- Generated by IcoMoon.io -->
<svg version="1.1" xmlns="http://www.w3.org/2000/svg" width="32" height="32" viewBox="0 0 32 32">
<path d="M31.219 0.781c0.955 0.955 1.034 2.453 0.239 3.498l-0.239 0.273-11.449 11.448 11.449 11.448c1.041 1.041 1.041 2.73 0 3.771-0.955 0.955-2.453 1.034-3.498 0.239l-0.273-0.239-11.448-11.449-11.448 11.449c-1.041 1.041-2.73 1.041-3.771 0-0.955-0.955-1.034-2.453-0.239-3.498l0.239-0.273 11.449-11.448-11.449-11.448c-1.041-1.041-1.041-2.73 0-3.771 0.955-0.955 2.453-1.034 3.498-0.239l0.273 0.239 11.448 11.449 11.448-11.449c1.041-1.041 2.73-1.041 3.771 0z"></path>
</svg>
